<svg width="66" height="43" viewBox="0 0 66 43" fill="none" xmlns="http://www.w3.org/2000/svg">
<path d="M31.912 42.907C26.263 42.907 21.287 39.394 19.336 34.2C17.505 35.096 15.497 35.565 13.452 35.565C6.035 35.565 0 29.529 0 22.113C0 14.695 6.034 8.661 13.452 8.661C14.752 8.661 16.032 8.847 17.272 9.216C19.074 3.73 24.149 0 30.035 0C32.889 0 35.673 0.915003 37.969 2.592C40.83 0.895003 44.076 0 47.411 0C57.64 0 65.962 8.322 65.962 18.552C65.962 28.782 57.641 37.104 47.412 37.104C46.047 37.104 44.665 36.945 43.293 36.627C40.836 40.524 36.556 42.907 31.912 42.907ZM20.024 31.296C20.171 31.296 20.318 31.323 20.458 31.38C20.808 31.519 21.07 31.818 21.163 32.183C22.411 37.114 26.831 40.558 31.912 40.558C36.001 40.558 39.747 38.319 41.691 34.714C41.952 34.23 42.512 33.991 43.043 34.14C44.498 34.548 45.968 34.754 47.412 34.754C56.346 34.754 63.614 27.486 63.614 18.552C63.614 9.618 56.346 2.35 47.412 2.35C44.254 2.35 41.185 3.268 38.539 5.006C38.106 5.289 37.539 5.257 37.142 4.926C35.151 3.265 32.627 2.35 30.036 2.35C24.815 2.35 20.366 5.907 19.216 10.999C19.14 11.336 18.92 11.623 18.614 11.782C18.308 11.941 17.947 11.959 17.627 11.829C16.291 11.285 14.887 11.01 13.453 11.01C7.331 11.01 2.351 15.99 2.351 22.114C2.351 28.235 7.331 33.217 13.453 33.217C15.554 33.217 17.608 32.615 19.394 31.481C19.585 31.358 19.804 31.296 20.024 31.296Z" fill="black"/>
</svg>
