<svg width="68" height="62" viewBox="0 0 68 62" fill="none" xmlns="http://www.w3.org/2000/svg">
<path d="M24.236 7.245C24.884 7.245 25.411 6.719 25.411 6.07V1.175C25.411 0.525999 24.885 0 24.236 0C23.587 0 23.061 0.525999 23.061 1.175V6.07C23.061 6.719 23.587 7.245 24.236 7.245Z" fill="black"/>
<path d="M35.928 13.217C36.229 13.217 36.529 13.102 36.759 12.873L40.968 8.664C41.427 8.205 41.427 7.46 40.968 7.003C40.509 6.544 39.765 6.544 39.306 7.003L35.097 11.212C34.638 11.671 34.638 12.416 35.097 12.873C35.327 13.102 35.628 13.217 35.928 13.217Z" fill="black"/>
<path d="M9.84099 12.873C10.07 13.102 10.37 13.217 10.671 13.217C10.972 13.217 11.273 13.102 11.501 12.873C11.96 12.414 11.96 11.671 11.501 11.212L7.29199 7.003C6.83299 6.544 6.08899 6.544 5.63099 7.003C5.17199 7.462 5.17199 8.205 5.63099 8.664L9.84099 12.873Z" fill="black"/>
<path d="M7.636 23.462C7.636 22.814 7.111 22.287 6.461 22.287H1.175C0.527 22.287 0 22.814 0 23.462C0 24.111 0.526 24.637 1.175 24.637H6.461C7.111 24.637 7.636 24.112 7.636 23.462Z" fill="black"/>
<path d="M49.183 18.394C45.848 18.394 42.601 19.287 39.74 20.984C38.324 19.949 36.719 19.206 35.025 18.788C32.839 13.734 27.308 10.753 21.733 11.976C15.405 13.362 11.385 19.638 12.772 25.965C12.868 26.401 12.998 26.819 13.141 27.232C6.712 28.237 1.77299 33.797 1.77299 40.505C1.77299 47.923 7.80599 53.957 15.224 53.957C17.269 53.957 19.277 53.489 21.108 52.593C23.059 57.786 28.035 61.299 33.683 61.299C38.328 61.299 42.607 58.915 45.064 55.02C46.437 55.335 47.818 55.496 49.183 55.496C59.412 55.496 67.734 47.173 67.734 36.943C67.734 26.716 59.411 18.394 49.183 18.394ZM22.236 14.271C26.187 13.406 30.103 15.182 32.164 18.408C32.045 18.405 31.927 18.394 31.808 18.394C25.922 18.394 20.847 22.123 19.045 27.609C17.922 27.276 16.766 27.099 15.591 27.067C15.376 26.555 15.191 26.025 15.069 25.463C13.958 20.402 17.173 15.382 22.236 14.271ZM49.183 53.147C47.739 53.147 46.269 52.939 44.814 52.532C44.283 52.383 43.724 52.623 43.462 53.106C41.519 56.71 37.773 58.95 33.683 58.95C28.603 58.95 24.183 55.506 22.935 50.575C22.842 50.21 22.58 49.91 22.23 49.772C22.09 49.717 21.943 49.689 21.796 49.689C21.575 49.689 21.357 49.751 21.165 49.871C19.379 51.007 17.325 51.607 15.224 51.607C9.103 51.607 4.122 46.626 4.122 40.504C4.122 34.382 9.10199 29.401 15.224 29.401C16.658 29.401 18.062 29.676 19.398 30.22C19.717 30.351 20.079 30.334 20.384 30.173C20.691 30.013 20.91 29.727 20.987 29.391C22.136 24.298 26.586 20.742 31.807 20.742C32.297 20.742 32.784 20.784 33.266 20.848C34.142 20.965 34.997 21.183 35.818 21.501C36.933 21.935 37.983 22.541 38.914 23.316C39.31 23.648 39.878 23.68 40.31 23.397C42.956 21.66 46.025 20.742 49.183 20.742C58.117 20.742 65.385 28.01 65.385 36.943C65.385 45.879 58.116 53.147 49.183 53.147Z" fill="black"/>
</svg>
