<svg width="66" height="64" viewBox="0 0 66 64" fill="none" xmlns="http://www.w3.org/2000/svg">
<path d="M18.738 49.806C18.738 51.671 17.224 53.183 15.359 53.183C13.494 53.183 11.982 51.671 11.982 49.806C11.982 47.941 15.359 42.905 15.359 42.905C15.359 42.905 18.738 47.941 18.738 49.806Z" fill="black"/>
<path d="M33.275 60.084C33.275 61.95 31.763 63.462 29.896 63.462C28.031 63.462 26.519 61.95 26.519 60.084C26.519 58.219 29.896 53.183 29.896 53.183C29.896 53.183 33.275 58.219 33.275 60.084Z" fill="black"/>
<path d="M47.078 56.561C47.078 58.426 45.566 59.938 43.701 59.938C41.836 59.938 40.322 58.426 40.322 56.561C40.322 54.696 43.701 49.659 43.701 49.659C43.701 49.659 47.078 54.696 47.078 56.561Z" fill="black"/>
<path d="M31.912 42.905C26.262 42.905 21.287 39.392 19.336 34.198C17.504 35.094 15.496 35.562 13.451 35.562C6.035 35.562 0 29.528 0 22.11C0 14.692 6.035 8.658 13.451 8.658C14.752 8.658 16.031 8.846 17.271 9.215C19.074 3.728 24.148 0 30.035 0C32.889 0 35.674 0.914 37.969 2.59C40.83 0.892 44.076 0 47.41 0C57.64 0 65.963 8.322 65.963 18.55C65.963 28.779 57.641 37.103 47.41 37.103C46.045 37.103 44.664 36.942 43.291 36.626C40.834 40.52 36.555 42.905 31.912 42.905ZM20.023 31.294C20.169 31.294 20.318 31.321 20.457 31.377C20.807 31.516 21.07 31.815 21.162 32.18C22.41 37.111 26.83 40.555 31.912 40.555C36 40.555 39.746 38.316 41.689 34.711C41.951 34.228 42.511 33.988 43.041 34.137C44.496 34.544 45.967 34.752 47.41 34.752C56.344 34.752 63.613 27.483 63.613 18.549C63.613 9.615 56.343 2.348 47.41 2.348C44.252 2.348 41.183 3.266 38.539 5.003C38.105 5.286 37.537 5.254 37.141 4.923C35.151 3.263 32.627 2.348 30.036 2.348C24.815 2.348 20.364 5.905 19.216 10.997C19.14 11.333 18.919 11.62 18.612 11.78C18.307 11.94 17.946 11.958 17.626 11.827C16.29 11.283 14.886 11.008 13.452 11.008C7.331 11.008 2.35 15.989 2.35 22.111C2.35 28.233 7.33 33.214 13.452 33.214C15.554 33.214 17.608 32.614 19.393 31.479C19.584 31.357 19.803 31.294 20.023 31.294Z" fill="black"/>
</svg>
