<svg width="66" height="68" viewBox="0 0 66 68" fill="none" xmlns="http://www.w3.org/2000/svg">
<path d="M11.835 53.29C13.7813 53.29 15.359 51.7123 15.359 49.766C15.359 47.8198 13.7813 46.242 11.835 46.242C9.88876 46.242 8.311 47.8198 8.311 49.766C8.311 51.7123 9.88876 53.29 11.835 53.29Z" fill="black"/>
<path d="M18.884 67.094C20.8302 67.094 22.408 65.5162 22.408 63.57C22.408 61.6237 20.8302 60.046 18.884 60.046C16.9377 60.046 15.36 61.6237 15.36 63.57C15.36 65.5162 16.9377 67.094 18.884 67.094Z" fill="black"/>
<path d="M29.456 56.815C31.4023 56.815 32.98 55.2373 32.98 53.291C32.98 51.3447 31.4023 49.767 29.456 49.767C27.5098 49.767 25.932 51.3447 25.932 53.291C25.932 55.2373 27.5098 56.815 29.456 56.815Z" fill="black"/>
<path d="M47.273 53.29C49.2192 53.29 50.797 51.7123 50.797 49.766C50.797 47.8198 49.2192 46.242 47.273 46.242C45.3267 46.242 43.749 47.8198 43.749 49.766C43.749 51.7123 45.3267 53.29 47.273 53.29Z" fill="black"/>
<path d="M40.224 67.094C42.1702 67.094 43.748 65.5162 43.748 63.57C43.748 61.6237 42.1702 60.046 40.224 60.046C38.2777 60.046 36.7 61.6237 36.7 63.57C36.7 65.5162 38.2777 67.094 40.224 67.094Z" fill="black"/>
<path d="M31.911 42.906C26.262 42.906 21.286 39.393 19.335 34.199C17.503 35.095 15.496 35.564 13.451 35.564C6.034 35.564 0 29.529 0 22.112C0 14.694 6.034 8.66 13.451 8.66C14.751 8.66 16.031 8.846 17.271 9.216C19.073 3.73 24.148 0 30.034 0C32.888 0 35.673 0.913999 37.968 2.592C40.829 0.893999 44.076 0 47.41 0C57.639 0 65.962 8.322 65.962 18.552C65.962 28.782 57.639 37.102 47.41 37.102C46.045 37.102 44.664 36.943 43.291 36.626C40.834 40.522 36.555 42.906 31.911 42.906ZM20.022 31.296C20.169 31.296 20.316 31.323 20.457 31.38C20.807 31.519 21.069 31.817 21.161 32.183C22.409 37.114 26.829 40.557 31.911 40.557C35.999 40.557 39.746 38.318 41.69 34.713C41.951 34.23 42.511 33.99 43.041 34.14C44.496 34.547 45.966 34.754 47.41 34.754C56.344 34.754 63.612 27.486 63.612 18.552C63.612 9.618 56.344 2.35 47.41 2.35C44.252 2.35 41.184 3.268 38.538 5.005C38.105 5.289 37.538 5.257 37.141 4.925C35.15 3.264 32.626 2.35 30.035 2.35C24.814 2.35 20.365 5.907 19.215 10.998C19.139 11.336 18.919 11.622 18.612 11.781C18.306 11.941 17.945 11.958 17.626 11.829C16.29 11.285 14.885 11.01 13.452 11.01C7.331 11.01 2.35 15.989 2.35 22.113C2.35 28.234 7.331 33.216 13.452 33.216C15.553 33.216 17.607 32.615 19.393 31.481C19.583 31.357 19.802 31.296 20.022 31.296Z" fill="black"/>
</svg>
