<svg width="48" height="47" viewBox="0 0 48 47" fill="none" xmlns="http://www.w3.org/2000/svg">
<path d="M24.235 35.21C17.757 35.21 12.487 29.94 12.487 23.462C12.487 16.984 17.757 11.715 24.235 11.715C30.713 11.715 35.983 16.985 35.983 23.462C35.983 29.94 30.713 35.21 24.235 35.21ZM24.235 14.064C19.053 14.064 14.837 18.28 14.837 23.462C14.837 28.645 19.053 32.86 24.235 32.86C29.417 32.86 33.633 28.645 33.633 23.462C33.633 18.281 29.417 14.064 24.235 14.064Z" fill="black"/>
<path d="M24.235 7.245C23.586 7.245 23.06 6.718 23.06 6.07V1.174C23.06 0.525002 23.586 0 24.235 0C24.883 0 25.41 0.525002 25.41 1.174V6.07C25.41 6.718 24.883 7.245 24.235 7.245Z" fill="black"/>
<path d="M35.927 13.216C35.626 13.216 35.326 13.101 35.096 12.872C34.637 12.414 34.637 11.67 35.096 11.211L39.305 7.00201C39.764 6.54401 40.507 6.54401 40.966 7.00201C41.425 7.46101 41.425 8.20501 40.966 8.66301L36.757 12.872C36.528 13.101 36.228 13.216 35.927 13.216Z" fill="black"/>
<path d="M10.671 13.216C10.37 13.216 10.069 13.101 9.84 12.872L5.63 8.66301C5.172 8.20501 5.172 7.46101 5.63 7.00201C6.089 6.54401 6.833 6.54401 7.291 7.00201L11.501 11.211C11.959 11.67 11.959 12.415 11.501 12.872C11.272 13.101 10.971 13.216 10.671 13.216Z" fill="black"/>
<path d="M23.299 46.746C22.65 46.746 22.124 46.22 22.124 45.571V40.675C22.124 40.026 22.65 39.5 23.299 39.5C23.947 39.5 24.473 40.026 24.473 40.675V45.571C24.473 46.22 23.947 46.746 23.299 46.746Z" fill="black"/>
<path d="M7.39703 40.088C7.09703 40.088 6.79603 39.973 6.56703 39.744C6.10803 39.286 6.10803 38.541 6.56703 38.082L10.776 33.873C11.235 33.414 11.978 33.414 12.437 33.873C12.896 34.331 12.896 35.075 12.437 35.534L8.22803 39.744C7.99903 39.973 7.69803 40.088 7.39703 40.088Z" fill="black"/>
<path d="M41.073 40.088C40.773 40.088 40.472 39.973 40.242 39.744L36.033 35.534C35.574 35.075 35.574 34.332 36.033 33.873C36.492 33.414 37.235 33.414 37.694 33.873L41.903 38.082C42.362 38.541 42.362 39.284 41.903 39.744C41.674 39.973 41.374 40.088 41.073 40.088Z" fill="black"/>
<path d="M6.461 24.637H1.175C0.526001 24.637 0 24.111 0 23.462C0 22.814 0.526001 22.287 1.175 22.287H6.461C7.11 22.287 7.636 22.813 7.636 23.462C7.635 24.111 7.11 24.637 6.461 24.637Z" fill="black"/>
<path d="M46.402 24.637H40.136C39.487 24.637 38.961 24.111 38.961 23.462C38.961 22.814 39.487 22.287 40.136 22.287H46.402C47.05 22.287 47.577 22.813 47.577 23.462C47.577 24.111 47.05 24.637 46.402 24.637Z" fill="black"/>
</svg>
