<svg width="66" height="30" viewBox="0 0 66 30" fill="none" xmlns="http://www.w3.org/2000/svg">
<path d="M18.191 10.625H3.96101C3.76701 10.625 3.60901 10.099 3.60901 9.45C3.60901 8.801 3.76601 8.27499 3.96101 8.27499H18.191C18.385 8.27499 18.543 8.8 18.543 9.45C18.543 10.099 18.385 10.625 18.191 10.625Z" fill="black"/>
<path d="M17.593 17.674H0.424999C0.191999 17.674 0 17.148 0 16.499C0 15.85 0.190999 15.324 0.424999 15.324H17.593C17.826 15.324 18.017 15.849 18.017 16.499C18.017 17.148 17.827 17.674 17.593 17.674Z" fill="black"/>
<path d="M17.678 25.016H3.94801C3.76001 25.016 3.60901 24.49 3.60901 23.841C3.60901 23.192 3.76001 22.666 3.94801 22.666H17.678C17.866 22.666 18.017 23.191 18.017 23.841C18.017 24.49 17.866 25.016 17.678 25.016Z" fill="black"/>
<path d="M52.677 0C50.504 0 48.365 0.550997 46.464 1.595C44.906 0.564997 43.046 0 41.18 0C37.25 0 33.764 2.373 32.319 5.967C31.628 5.81 30.921 5.731 30.21 5.731C24.935 5.731 20.644 10.022 20.644 15.297C20.644 20.571 24.935 24.862 30.21 24.862C31.416 24.862 32.628 24.627 33.751 24.178C35.3 27.52 38.7 29.72 42.423 29.72C45.57 29.72 48.466 28.205 50.257 25.644C51.066 25.801 51.878 25.88 52.678 25.88C59.814 25.88 65.618 20.075 65.618 12.94C65.618 5.806 59.813 0 52.677 0ZM52.677 22.994C51.783 22.994 50.871 22.866 49.965 22.612C49.838 22.577 49.707 22.558 49.576 22.558C49.045 22.558 48.557 22.849 48.306 23.317C47.136 25.486 44.88 26.834 42.421 26.834C39.364 26.834 36.706 24.763 35.954 21.797C35.842 21.348 35.518 20.98 35.093 20.81C34.923 20.742 34.741 20.707 34.556 20.707C34.281 20.707 34.013 20.785 33.782 20.932C32.708 21.616 31.472 21.976 30.209 21.976C26.525 21.976 23.529 18.98 23.529 15.297C23.529 11.613 26.525 8.616 30.209 8.616C31.07 8.616 31.915 8.782 32.719 9.108C32.893 9.179 33.076 9.216 33.264 9.216C33.496 9.216 33.727 9.158 33.931 9.052C34.307 8.856 34.577 8.504 34.672 8.09C35.363 5.026 38.039 2.885 41.18 2.885C42.739 2.885 44.257 3.436 45.455 4.434C45.714 4.651 46.043 4.77 46.381 4.77C46.662 4.77 46.934 4.689 47.172 4.534C48.815 3.456 50.718 2.886 52.677 2.886C58.221 2.886 62.731 7.397 62.731 12.941C62.731 18.485 58.221 22.994 52.677 22.994Z" fill="black"/>
</svg>
